<svg id="Warstwa_1" data-name="Warstwa 1" xmlns="http://www.w3.org/2000/svg" viewBox="0 0 566.93 566.93"><defs><style>.cls-1{fill:#4e1742;}.cls-2{fill:#edafd0;}.cls-3{fill:#d3e5f7;}</style></defs><path class="cls-1" d="M172.71,286a30.16,30.16,0,0,0-9.06-1.09,61.73,61.73,0,0,0-12,1.09c-.11,11.45-3.81,28-3.81,39.7a44,44,0,0,0,1.2,10.58c-.77,2.07-.33,4.91-3.06,5.67a3,3,0,0,1-1,.11,4.86,4.86,0,0,1-4.36-2.72,59.17,59.17,0,0,1-.77-9.82c0-12,2.95-29,2.95-40.69v-2.94A18,18,0,0,1,135.4,287h-2.51a25.76,25.76,0,0,0-5.78.54c-2.51,0-6.22.22-7.31-3.16v-.87c0-3,1.86-3.6,4.37-3.6.21,0,9,0,9.27-.11a175.94,175.94,0,0,1,31.41-1.86l7.2.22,3.27,4.26a1.34,1.34,0,0,1,.11.65C175.43,284.57,173.47,285.44,172.71,286Z"/><path class="cls-1" d="M196.16,325c-2.08,7.2-7.86,17.34-17.89,17.34-9.71,0-16-8.51-16-18.11,0-2.72,1.85-7,2.84-9,3.71-5.35,7.42-11.45,15.6-11.45,7.19,0,15.92,9.92,15.92,17.67A13.85,13.85,0,0,1,196.16,325Zm-15.6-12.55c-3.93,0-9.93,7.31-9.93,12.76,0,4.8,5.45,8.08,7.2,8.08,4.91,0,9.93-6.33,9.93-12.33v-.11C187.76,318,183.83,312.49,180.56,312.49Z"/><path class="cls-1" d="M229.86,317.51c-1.75-1.09-3.71-2.18-5.89-2.07a7.28,7.28,0,0,0-2.51.43c-4,1.75-7.75,5-8.29,8.73-.65,4.47,1.53,10,.76,14.29-1.31.55-2.07,1.74-3.49,1.74a2.24,2.24,0,0,1-1.63-.76,44.74,44.74,0,0,1-6.11-14.72,173.69,173.69,0,0,1-3.17-18.77v-.76c0-1.31.55-2.62,1.64-2.94a5.37,5.37,0,0,1,1.75-.33c3.27,0,4,3.82,5.34,6.32a3.39,3.39,0,0,1,.11,1.1c0,.76-.11,1.63-.11,2.4a3.13,3.13,0,0,0,1.09,2.72c4-2.94,7.85-6.22,12.65-7.31a13,13,0,0,0,2-.1c3.49,0,7,.87,8.51,3.92l.11.22v1C232.59,314.78,231.82,316.75,229.86,317.51Z"/><path class="cls-1" d="M258.87,346c-7.64,0-11.34-11.45-11.34-20.18v-.65a5.27,5.27,0,0,1,0-1.86c0-1.42.11-2.73.11-4a16.26,16.26,0,0,0-.44-4.59c-1.64.11-4.58.66-6.66.66A4.87,4.87,0,0,1,236,313a2.79,2.79,0,0,1-.43-1.53c0-1,.65-1.85,1-2.94H237a58.47,58.47,0,0,0,5.89-1.09c.54-.11,4.14-.44,4.91-.44a32.76,32.76,0,0,0,.87-8.62c0-10.14,1.63-18.22,1.63-20.94a9.25,9.25,0,0,1,2.08-4.58,3.69,3.69,0,0,1,1.52-.11,4.61,4.61,0,0,1,4.69,4c-2.61,8.62-1.85,20.07-2.94,29.35,1.31,0,2.72-.33,4.14-.33,2.19,0,4.48-.66,6.66-.55a7.76,7.76,0,0,1,4.25,1.09,2.29,2.29,0,0,1,.76,2.08c0,1.31-1,2.61-1.41,3.92a17.74,17.74,0,0,1-4.91.55c-1.2,0-2.4,0-3.6-.11a13.27,13.27,0,0,0-6.22,1.2,32.48,32.48,0,0,1,.11,3.27c0,2.73-.22,5.56-.22,8.29,0,5.24,1.53,11.78,5,13.09a17.57,17.57,0,0,0,11.89-7.2,3.68,3.68,0,0,1,1.09.11c1.75,0,3.49.33,4,2.18v.11C274.91,341.4,267.49,346,258.87,346Z"/><path class="cls-1" d="M311,324.93l.11-.11c-1.64,5.34-5.46,10-10.15,14.29a14.68,14.68,0,0,1-7.52,2.07,11.8,11.8,0,0,1-6-1.64c-8.4-5-10-8.4-10-15.16a15.18,15.18,0,0,1,1.31-6.87c4.69-3.71,9.38-10.25,15.82-10.69a10.44,10.44,0,0,1,2.51-.33c3.92,0,7.09,2.08,9.7,4.91s4.69,6.44,4.69,10.36A10,10,0,0,1,311,324.93Zm-8.4-5.46c-1-2-2.84-4.14-5.24-4.25a5.52,5.52,0,0,0-1.31.22c-3.7,1.2-8,3.92-9.27,7.85a3.08,3.08,0,0,0-.65,2c0,3.49,2.4,6.77,6.22,6.77a10.42,10.42,0,0,0,6.32-2.51c2.18-2.29,4.15-4.8,4.15-8v-.11A12,12,0,0,0,302.61,319.47Z"/><path class="cls-1" d="M353.11,334c-.33,2.62-1.2,5.89-4.25,6.44h-.66a6.4,6.4,0,0,1-4.25-2c-3.17-2.94-5.78-8.4-7.64-11.67-2.4,3-1.2,11.67-4.47,14.29a6.51,6.51,0,0,1-5.67-3.27c-2-2.73-2.95-6.66-4.37-9.38C320,321.87,313,313.91,313,307.58v-.43a4.71,4.71,0,0,1,3.6-1.53,7.06,7.06,0,0,1,6.22,4.47c1.09,2.73,3,10.47,5.23,12.76,2.4-3.27,1.64-11.88,6.33-13.63a6.48,6.48,0,0,1,4.47,2.84c3.27,4.69,2.4,13.52,7.2,16.9l1.09-1.2c1.42-5.45,1.2-16,4.69-20.28h1.86c2,0,4,.32,4,2.94h.11C356.6,317,354.75,327.44,353.11,334Z"/><path class="cls-1" d="M389.87,341c-4.26-.65-4.91-4.25-4.91-8.4,0-1.52.11-3.16.11-4.8,0-3.81-1.31-7.3-5.13-8.72-5.67,3-8.84,11.45-8.73,20.29a4.65,4.65,0,0,1-3.6,2.18,3.64,3.64,0,0,1-1.85-.55,6.49,6.49,0,0,1-2.95-5.67c-.1-2.62,1-5.56,1.09-8.29a9.82,9.82,0,0,0-.32-2.51v-.33c0-5.56-2.29-10.8-2.29-15.7a.4.4,0,0,0-.11-.33,5,5,0,0,1,3.27-1.2,4.79,4.79,0,0,1,4.36,2.62c.88,1.74.66,4,2.4,5.56,2.29-3.05,5.13-4.91,8.62-4.91h.65c8.73,1.75,11,9.27,12.22,18.65l-.11-.11a12.06,12.06,0,0,0-.22,2.08c0,1.74.33,3.71.33,5.45C392.7,338.34,392.16,340.09,389.87,341Z"/><path class="cls-1" d="M403.72,298.53c-2.19-.76-5.24-.33-5.9-3.38a6.2,6.2,0,0,1-.21-1.2,4.28,4.28,0,0,1,2.83-4.15c2.4,1,5.89,1.42,6.11,4.91C406.33,296.24,404.81,297.44,403.72,298.53Zm1.41,43.31a2.94,2.94,0,0,1-1.52-.44l-2.73-2.73-1.09-27.49a4.41,4.41,0,0,1,4.25-2.72,4.23,4.23,0,0,1,3.49,1.74c1.42,3.93,1.64,8.29,1.75,12.76,0,2.19-.11,4.48-.11,6.77a54.31,54.31,0,0,0,.54,8.4h.11C408.84,339.65,407.1,341.84,405.13,341.84Z"/><path class="cls-1" d="M445.93,338.13a5.31,5.31,0,0,1-4.91,2.72,8.38,8.38,0,0,1-2.84-.54c-3.16,1.42-7.09,3.27-10.91,3.27a9.38,9.38,0,0,1-5.45-1.64c-2.84-.65-4.36-3.81-6.11-6.11a14.43,14.43,0,0,1-.54-3.81,12.81,12.81,0,0,1,3.92-9.27c3.27-3.28,6.77-5.57,11.35-5.57h.65a.4.4,0,0,1,.33.11c2,0,3.05,1.86,4.8,1.86a7.48,7.48,0,0,0,1.42-.22,10.62,10.62,0,0,0,.65-3.6c0-3.71-1.63-8.95-4.58-10.15a1.5,1.5,0,0,0-.65-.1c-2.62,0-5.68,2.83-7.86,2.83-1.2,0-2.18-.76-2.72-3.27.21-4.36,4.14-5.89,7.63-7.53,4.91.22,10.25.66,12.54,5.78a56.43,56.43,0,0,1,4.48,22.91H447A66.75,66.75,0,0,1,445.93,338.13Zm-11.68-9.71v-.77c-.65-1.52-1.52-2.07-2.61-2.07a10.4,10.4,0,0,0-6.11,2.4,7.89,7.89,0,0,0-1.53,4.8c0,.55.66,1.2,1.53,1.64a12,12,0,0,0,3.6.65,5.34,5.34,0,0,0,3.6-1.2,2.49,2.49,0,0,0,1.74-2.62C434.47,330.38,434.25,329.4,434.25,328.42Z"/><path class="cls-1" d="M287.34,437.49a152.79,152.79,0,0,1-129.09-70.57,1.79,1.79,0,1,1,3-1.94,149.77,149.77,0,0,0,252.13,0,1.8,1.8,0,0,1,3,1.94A152.79,152.79,0,0,1,287.34,437.49Z"/><path class="cls-1" d="M220.34,371.49a8.67,8.67,0,0,0-2-1.07,23.16,23.16,0,0,0-2.31-.77,24.71,24.71,0,0,1-2.31-.91,5.06,5.06,0,0,1-1.76-1.22,2.76,2.76,0,0,1-.67-1.92,2.87,2.87,0,0,1,.6-1.84,3.85,3.85,0,0,1,1.64-1.16,7,7,0,0,1,4.19-.15,6.16,6.16,0,0,1,1.61.71,5.14,5.14,0,0,1,1.2,1,.64.64,0,0,0,.47.19.91.91,0,0,0,.62-.26.82.82,0,0,0,.28-.58,1.27,1.27,0,0,0-.42-.81,5.51,5.51,0,0,0-2.42-1.64,8.93,8.93,0,0,0-3.17-.56,7.92,7.92,0,0,0-3.33.66,5.15,5.15,0,0,0-2.22,1.81,4.61,4.61,0,0,0-.79,2.64,5,5,0,0,0,.45,2.21,4.34,4.34,0,0,0,1.24,1.54,7.39,7.39,0,0,0,1.85,1.06c.7.29,1.43.56,2.19.8a17.07,17.07,0,0,1,2.54.92,5.58,5.58,0,0,1,1.83,1.31,3.19,3.19,0,0,1,.71,2.07,2.88,2.88,0,0,1-.61,1.82,4,4,0,0,1-1.66,1.2,6.41,6.41,0,0,1-2.39.42,7.3,7.3,0,0,1-3-.62,7.48,7.48,0,0,1-2.47-1.79.87.87,0,0,0-.61-.28.84.84,0,0,0-.6.28.87.87,0,0,0-.27.62.81.81,0,0,0,.1.39,2.34,2.34,0,0,0,.24.31,10.05,10.05,0,0,0,3,2.08,8.9,8.9,0,0,0,3.68.65,8,8,0,0,0,3.31-.69,5.66,5.66,0,0,0,2.22-1.82,4.34,4.34,0,0,0,.81-2.57,5.44,5.44,0,0,0-.49-2.46A4.49,4.49,0,0,0,220.34,371.49Z"/><path class="cls-1" d="M237.3,366.11a.79.79,0,0,0-.62.25.85.85,0,0,0-.24.61v1.77a5.55,5.55,0,0,0-1.06-1.41,5.9,5.9,0,0,0-1.83-1.14,6.26,6.26,0,0,0-5.57.53,6.68,6.68,0,0,0-2.35,2.61,8.29,8.29,0,0,0-.86,3.84,8.38,8.38,0,0,0,.85,3.82,6.82,6.82,0,0,0,2.34,2.69,6,6,0,0,0,3.37,1,5.6,5.6,0,0,0,2.22-.43,6.14,6.14,0,0,0,1.77-1.12,5.27,5.27,0,0,0,1.12-1.4v1.84a.8.8,0,0,0,.24.58.79.79,0,0,0,.62.25.79.79,0,0,0,.59-.25.77.77,0,0,0,.25-.58V367a.85.85,0,0,0-.24-.61A.77.77,0,0,0,237.3,366.11Zm-3.18,12.21a4.61,4.61,0,0,1-2.62.77,4.68,4.68,0,0,1-2.64-.77,5.13,5.13,0,0,1-1.8-2.12,6.94,6.94,0,0,1-.65-3,6.64,6.64,0,0,1,.66-3,5.16,5.16,0,0,1,1.81-2,4.82,4.82,0,0,1,2.62-.74,4.61,4.61,0,0,1,2.62.77,5.33,5.33,0,0,1,1.8,2.09,6.55,6.55,0,0,1,.66,2.95,6.81,6.81,0,0,1-.66,3A5.28,5.28,0,0,1,234.12,378.32Z"/><path class="cls-1" d="M252.2,366.51a5.26,5.26,0,0,0-2.95-.74,5.57,5.57,0,0,0-2,.38,6.29,6.29,0,0,0-1.8,1,5.89,5.89,0,0,0-1.26,1.39V367a.82.82,0,0,0-.24-.59.79.79,0,0,0-.6-.25.82.82,0,0,0-.61.25.79.79,0,0,0-.25.59v12.51a.79.79,0,0,0,.23.58.82.82,0,0,0,.63.25.81.81,0,0,0,.59-.25.77.77,0,0,0,.25-.58v-8.13a3.39,3.39,0,0,1,.67-2,4.86,4.86,0,0,1,1.74-1.46,4.92,4.92,0,0,1,2.28-.55,3.75,3.75,0,0,1,2.15.55,3.06,3.06,0,0,1,1.17,1.46,5.61,5.61,0,0,1,.36,2v8.13a.8.8,0,0,0,.24.58.82.82,0,0,0,.63.25.85.85,0,0,0,.84-.83v-8.21a7.68,7.68,0,0,0-.49-2.81A4.18,4.18,0,0,0,252.2,366.51Z"/><path class="cls-1" d="M270.25,359.71a.86.86,0,0,0-.63.25.84.84,0,0,0-.24.59v8.22a5.26,5.26,0,0,0-1.1-1.44,6.14,6.14,0,0,0-1.83-1.14,5.78,5.78,0,0,0-2.2-.42,6,6,0,0,0-3.33,1,6.89,6.89,0,0,0-2.34,2.66,8.8,8.8,0,0,0,0,7.63,7,7,0,0,0,2.34,2.66,6,6,0,0,0,3.35,1,5.6,5.6,0,0,0,2.22-.44,6.49,6.49,0,0,0,1.79-1.16,5.43,5.43,0,0,0,1.1-1.43v1.92a.8.8,0,0,0,.24.58.82.82,0,0,0,.63.25.85.85,0,0,0,.84-.83v-19a.84.84,0,0,0-.24-.59A.82.82,0,0,0,270.25,359.71Zm-3.18,18.61a4.84,4.84,0,0,1-5.24,0,5.13,5.13,0,0,1-1.81-2.11,6.72,6.72,0,0,1-.66-3,6.62,6.62,0,0,1,.66-3,5,5,0,0,1,1.81-2.08,4.9,4.9,0,0,1,5.24,0,5.16,5.16,0,0,1,1.8,2.08,6.75,6.75,0,0,1,.65,3,6.88,6.88,0,0,1-.65,3A5.33,5.33,0,0,1,267.07,378.32Z"/><path class="cls-1" d="M285.19,366.75a7.08,7.08,0,0,0-7.19,0,7,7,0,0,0-2.54,2.65,8.23,8.23,0,0,0,0,7.64,7,7,0,0,0,2.54,2.65,7.21,7.21,0,0,0,7.19,0,7,7,0,0,0,2.52-2.65,8.23,8.23,0,0,0,0-7.64A7.06,7.06,0,0,0,285.19,366.75Zm1.06,9.49a5.4,5.4,0,0,1-1.91,2.08,5.3,5.3,0,0,1-5.5,0,5.45,5.45,0,0,1-1.93-2.08,6.14,6.14,0,0,1-.71-3,6.22,6.22,0,0,1,.71-3,5.31,5.31,0,0,1,1.93-2.08,5.36,5.36,0,0,1,5.5,0,5.26,5.26,0,0,1,1.91,2.08,6.45,6.45,0,0,1,.7,3A6.37,6.37,0,0,1,286.25,376.24Z"/><path class="cls-1" d="M311.11,366.75a4.86,4.86,0,0,0-2.83-.76,5.75,5.75,0,0,0-2.21.45,7,7,0,0,0-1.94,1.19A4.55,4.55,0,0,0,303,369.1a4.47,4.47,0,0,0-1.51-2.2,4.89,4.89,0,0,0-3-.91,5.19,5.19,0,0,0-2,.41,6.46,6.46,0,0,0-1.72,1.07,6,6,0,0,0-1,1.2V367a.82.82,0,0,0-.24-.59.79.79,0,0,0-.6-.25.81.81,0,0,0-.61.25.79.79,0,0,0-.25.59v12.51a.79.79,0,0,0,.23.58.82.82,0,0,0,.63.25.85.85,0,0,0,.84-.83v-7.91a3.52,3.52,0,0,1,.63-2.05,4.82,4.82,0,0,1,1.64-1.46,4.36,4.36,0,0,1,2.17-.56,3.33,3.33,0,0,1,2,.56,3.11,3.11,0,0,1,1.08,1.46,5.76,5.76,0,0,1,.34,2.05v7.91a.8.8,0,0,0,.24.58.85.85,0,0,0,1.2,0,.8.8,0,0,0,.24-.58v-7.82a3.6,3.6,0,0,1,.65-2.1,4.79,4.79,0,0,1,1.69-1.5,4.48,4.48,0,0,1,2.21-.56,3.47,3.47,0,0,1,2.09.56,3.18,3.18,0,0,1,1.14,1.5,5.68,5.68,0,0,1,.37,2.1v7.82a.82.82,0,0,0,.22.58.87.87,0,0,0,1.22,0,.83.83,0,0,0,.23-.58v-7.91a8.05,8.05,0,0,0-.48-2.86A4.27,4.27,0,0,0,311.11,366.75Z"/><path class="cls-1" d="M318.36,361.64a1.36,1.36,0,0,0-.88.26.94.94,0,0,0-.32.77V363a1,1,0,0,0,.29.77,1.27,1.27,0,0,0,.88.26,1.2,1.2,0,0,0,.85-.26,1,1,0,0,0,.29-.77v-.28a1,1,0,0,0-.29-.77A1.2,1.2,0,0,0,318.36,361.64Z"/><path class="cls-1" d="M318.33,365.85a.85.85,0,0,0-.84.84v12.85a.82.82,0,0,0,.22.58.79.79,0,0,0,.62.25.85.85,0,0,0,.84-.83V366.69a.85.85,0,0,0-.84-.84Z"/><path class="cls-1" d="M333.54,367.49a5.85,5.85,0,0,0-2.05-1.29,6.68,6.68,0,0,0-2.38-.43,5.94,5.94,0,0,0-3.17.91,6.73,6.73,0,0,0-2.43,2.58,8.14,8.14,0,0,0-.94,4.05,7.8,7.8,0,0,0,.92,3.85,6.59,6.59,0,0,0,2.56,2.57,7.57,7.57,0,0,0,3.81.92,6,6,0,0,0,2.93-.74,7.4,7.4,0,0,0,2.18-1.74.77.77,0,0,0,.28-.59.7.7,0,0,0-.21-.5.67.67,0,0,0-.52-.22.84.84,0,0,0-.58.25,6.48,6.48,0,0,1-1,1,5.12,5.12,0,0,1-1.39.74,5,5,0,0,1-1.73.28,5.66,5.66,0,0,1-3-.78,5.16,5.16,0,0,1-1.93-2.13,6.52,6.52,0,0,1-.66-2.95h10.55a.82.82,0,0,0,.58-.24.75.75,0,0,0,.25-.57,7.2,7.2,0,0,0-.58-2.85A6.59,6.59,0,0,0,333.54,367.49Zm-8.9,3.1a5.37,5.37,0,0,1,1.16-1.82,4.59,4.59,0,0,1,1.59-1,4.89,4.89,0,0,1,1.72-.33,4.82,4.82,0,0,1,2.13.49,5,5,0,0,1,1.75,1.39,4,4,0,0,1,.83,2.22v.23h-9.5A6,6,0,0,1,324.64,370.59Z"/><path class="cls-1" d="M346.7,366a2.43,2.43,0,0,0-1-.21,4.65,4.65,0,0,0-2.16.5,5.68,5.68,0,0,0-1.67,1.32,6.8,6.8,0,0,0-1.1,1.77c0,.07,0,.14-.07.21V367a.82.82,0,0,0-.24-.59.76.76,0,0,0-.6-.25.82.82,0,0,0-.61.25.79.79,0,0,0-.25.59v12.51a.83.83,0,0,0,.23.58.82.82,0,0,0,.63.25.79.79,0,0,0,.59-.25.77.77,0,0,0,.25-.58v-6.9a5.31,5.31,0,0,1,.38-1.94,6.52,6.52,0,0,1,1-1.75,5.33,5.33,0,0,1,1.42-1.24,3,3,0,0,1,1.56-.46,1.83,1.83,0,0,1,.77.14,1.35,1.35,0,0,0,.55.14.73.73,0,0,0,.53-.22.88.88,0,0,0,.22-.65A.71.71,0,0,0,346.7,366Z"/><path class="cls-1" d="M359.65,367.06a.74.74,0,0,0,.06-.28.86.86,0,0,0-.24-.62.75.75,0,0,0-.57-.25h-8.55a.78.78,0,0,0-.57.24.76.76,0,0,0,0,1.11.78.78,0,0,0,.57.24h7l-8.29,11.42a1.43,1.43,0,0,0-.17.32.89.89,0,0,0,0,.32.88.88,0,0,0,.21.53.67.67,0,0,0,.59.28h9.08a.8.8,0,0,0,.57-.22.75.75,0,0,0,0-1.1.78.78,0,0,0-.57-.24h-7.55l8.3-11.45A1.58,1.58,0,0,0,359.65,367.06Z"/><path class="cls-2" d="M347.89,217.87l-.22,31c.81,6.16-.62,10.78-4.64,11.59-32.91,5-103.56-2.92-110.33-2.27s-6.7-6.81-6.82-11.47V217.87"/><path class="cls-3" d="M350.75,209.67c-4.68-4.87-52.4-46.47-61.7-50.46-6.31-1.66-37.54,8.3-50.17,18.59s-13.4,15.5-13.4,15.5c-3.56,7.66-7.61,35.41-1.29,37,8.46,2.09,9.42-12.3,12-11.78,5.66,1.14.66,17,13.57,13.28s8.64-15.07,18.68-12.94,7.58,13.61,20.84,12.94S298,225,306.91,225c7.83,0,6,8.71,14.26,9s10.41-13.11,16.15-12.78S342,236,349,235.34,354.28,213.34,350.75,209.67Z"/><path class="cls-2" d="M297.31,178.17c0,6.7-5.44,10.14-12.14,10.14S273,183.54,273,176.84s5.43-10.13,12.13-10.13S297.31,171.47,297.31,178.17Z"/><path class="cls-1" d="M399.58,179.63a153.54,153.54,0,0,0-121.9-48.75l-.18-.87a20.15,20.15,0,0,1,4.4-17.3c2.8-3.12,6.33-4.73,9.65-4.4a8.56,8.56,0,0,1,7.38,5.44c1.1,2.67.87,5.42,0,6.44a2.94,2.94,0,0,1-2.32,1.13h0c-1.71,0-3.8-1.24-5.46-3.24a1.8,1.8,0,0,0-2.76,2.31c2.36,2.83,5.43,4.52,8.22,4.52h0a6.44,6.44,0,0,0,5.08-2.43c1.84-2.22,2.06-6.37.53-10.1a12.14,12.14,0,0,0-10.36-7.65c-4.49-.45-9.1,1.59-12.68,5.58A23.46,23.46,0,0,0,274,130.75l.09.43A153.25,153.25,0,0,0,136.18,257.41a1.8,1.8,0,1,0,3.54.61,149.67,149.67,0,0,1,135-123.29c.82,4.3,1.68,9.32,2.51,14.21l.86,5c-11.65,3.35-27.67,10.76-35.46,17.86C231,182.45,226.77,191.71,226.6,192.1c0,.11-.08.22-.11.33a4,4,0,0,0,.65,3.37c2.83,3.94,13.64,8.26,113.47,17.86a18.24,18.24,0,0,0,2,.12,9.57,9.57,0,0,0,6.26-1.83,2.11,2.11,0,0,0,0,.26c.7,5.52.95,15.38-1.37,18.31a1.43,1.43,0,0,1-1,.65c-1.91.18-2.76-1.49-4.11-5.13-1.18-3.19-2.52-6.81-6.23-7-3.38-.22-5.56,2.29-7.66,4.72s-4.3,5-7.64,4.79c-2.73-.1-3.5-1.42-4.74-3.95-1.16-2.38-2.75-5.64-7.55-5.64a9.58,9.58,0,0,0-8,3.42c-1.64,1.67-3.33,3.39-9.45,3.72s-8-2.47-10.4-6c-2-2.92-4.28-6.23-9.15-7.34-6.12-1.41-8.56,2.56-10.92,6.41-2.16,3.51-4.39,7.15-9.72,8.82-1.36.43-3.2.8-4.24.12-1.32-.87-1.6-3.59-1.85-6-.34-3.19-.75-7.15-4.31-7.59s-5.44,3.05-7,6.16c-1.91,3.9-3.29,6.23-6.27,5.73a2.39,2.39,0,0,1-1.71-1.32c-3.28-5.45-.08-22.34,1.1-25.87a1.8,1.8,0,1,0-3.41-1.13c-.77,2.3-5.26,21.4-.77,28.86a6,6,0,0,0,4.2,3,8.19,8.19,0,0,0,1.61.1,1.79,1.79,0,0,0-1.53,1.81c0,.31,0,.64,0,1,0,2.2.05,5.21,2.14,7.15a5.89,5.89,0,0,0,.57.41,1.78,1.78,0,0,0-1.25,1.73v.46c.08,3.64.19,8.62,3.13,11.22a6.86,6.86,0,0,0,5.43,1.54c1.68-.16,8.74.36,17.68,1,16.24,1.2,39.67,2.94,60.4,2.94,10.74,0,20.75-.47,28.65-1.72,4.64-1,6.84-6.05,5.9-13.58a1.8,1.8,0,0,0-3.57.45c.26,2,.8,8.8-3,9.59-22.63,3.58-63.64.55-88.14-1.27-10.71-.79-16.4-1.2-18.3-1a3.39,3.39,0,0,1-2.69-.65c-1.75-1.56-1.85-5.8-1.91-8.61V242a1.77,1.77,0,0,0-.15-.65,10.26,10.26,0,0,0,3.11.23c1.78-.13,9,.24,18.1.71,16.51.84,40.33,2,61.41,2a285.39,285.39,0,0,0,29.1-1.19c2.38-.34,5-1,6.45-3a6.54,6.54,0,0,0,.85-5.18,1.77,1.77,0,0,0-1.28-1.39,5.51,5.51,0,0,0,.87-.87c4-5.08,2.33-19.39,2.13-21a1.69,1.69,0,0,0-2.41-1.42c.43-1.17.58-3.38-2.67-6-1.54-1.23-7.13-6.66-13.61-12.95-19.55-19-37.56-36.26-43.19-39a1.48,1.48,0,0,0-.27-.1c-1.74-.51-4.84-.22-8.68.67-.27-1.55-.54-3.12-.8-4.68-.82-4.77-1.65-9.64-2.45-13.89A149.73,149.73,0,0,1,436.9,282.12a1.79,1.79,0,0,0,1.8,1.78h0a1.81,1.81,0,0,0,1.78-1.82A152.83,152.83,0,0,0,399.58,179.63Zm-52.38,56a3.21,3.21,0,0,1-.23,2.43c-.66.92-2.62,1.3-4,1.49-23.23,2.51-64.95.39-89.87-.88-10-.51-16.55-.85-18.53-.71a4.33,4.33,0,0,1-3.2-.68c-.95-.88-1-2.83-1-4.55,0-.37,0-.72,0-1.06a1.78,1.78,0,0,0-1.61-1.7c4.38-.36,6.46-4.59,8-7.78,1.29-2.61,2.2-4.32,3.29-4.18.73.09,1,2.68,1.18,4.39.33,3.2.71,6.82,3.46,8.62,1.8,1.19,4.18,1.29,7.29.31,6.61-2.07,9.44-6.67,11.71-10.37,2.39-3.89,3.59-5.58,7-4.79s5.12,3.16,7,5.88c2.58,3.75,5.5,8,13.55,7.57,7.52-.41,9.91-2.85,11.83-4.8a6.11,6.11,0,0,1,5.4-2.34c2.44,0,3.13,1.17,4.32,3.62s2.83,5.79,7.85,6,8.08-3.26,10.47-6c1.95-2.23,3.26-3.57,4.72-3.49,1.28.08,2.06,1.91,3.09,4.7,1.18,3.19,2.78,7.5,7.12,7.5a6.06,6.06,0,0,0,.73,0,4.48,4.48,0,0,0,.5-.11A1.89,1.89,0,0,0,347.2,235.67ZM281,169.07a41.69,41.69,0,0,0,1.16,4.27,9.78,9.78,0,0,0-3.37,3,1.79,1.79,0,0,0,.43,2.5,1.82,1.82,0,0,0,1,.33,1.8,1.8,0,0,0,1.48-.77,5.56,5.56,0,0,1,3.52-2.3,3.49,3.49,0,0,1,2.79,1,1.8,1.8,0,0,0,2.39-2.7,7.22,7.22,0,0,0-4.76-1.91,31.39,31.39,0,0,1-1.11-4l.6,0c5.89,0,10.33,4.16,10.33,9.67,0,6.15-5.34,8.34-10.33,8.34-5.9,0-10.34-4.15-10.34-9.67C274.84,172.42,277.61,170.05,281,169.07Zm-.76-3.52c-5.54,1.52-9,5.67-9,11.29,0,7.57,6,13.27,13.94,13.27,8.33,0,13.92-4.8,13.92-11.94,0-7.56-6-13.26-13.92-13.26-.47,0-.92,0-1.37.05-.5-2.49-1-5.36-1.56-8.38,3.21-.79,5.7-1.11,6.91-.83,5.81,3,28.5,25,42.11,38.23,7.07,6.88,12.19,11.84,13.86,13.18,1.44,1.15,1.58,1.85,1.55,1.93-.18.44-2.14,1.39-5.7,1C267.33,203,233.12,198,230.06,193.7a.34.34,0,0,1-.09-.31c.62-1.29,4.88-9.61,15.13-18.95,7.71-7,23.07-13.76,33.67-16.91C279.28,160.43,279.78,163.15,280.26,165.55Z"/></svg>